<svg width="243" height="223" viewBox="0 0 243 223" fill="none" xmlns="http://www.w3.org/2000/svg">
<path d="M34.9957 184.53H25.3472L14.469 195.804V169.226L6.34846 173.031V221.584H14.469V205.123L18.7119 200.844L29.4805 221.584H38.3315L24.6228 194.97L34.9957 184.53Z" fill="black"/>
<path d="M72.3906 178.345C71.0026 175.795 69.1277 173.761 66.7719 172.233C64.4161 170.712 61.4576 169.951 57.9087 169.951C55.0293 169.951 52.5457 170.468 50.4577 171.509C48.3636 172.55 46.6166 173.956 45.2165 175.734C43.8164 177.511 42.7024 179.532 41.8806 181.791C41.0588 184.049 40.4744 186.417 40.1213 188.895C39.7744 191.372 39.5978 193.807 39.5978 196.206C39.5978 199.322 39.89 202.433 40.4866 205.538C41.077 208.648 42.0632 211.473 43.4389 214.023C44.8208 216.574 46.6896 218.619 49.0576 220.153C51.4317 221.687 54.378 222.454 57.9087 222.454C60.7819 222.454 63.2594 221.937 65.3413 220.896C67.4171 219.855 69.1582 218.443 70.5644 216.653C71.9644 214.863 73.0845 212.842 73.9185 210.578C74.7525 208.319 75.349 205.952 75.7082 203.474C76.0734 200.996 76.256 198.574 76.256 196.206C76.256 193.034 75.9578 189.905 75.3673 186.813C74.7768 183.72 73.7846 180.896 72.3906 178.345ZM48.5341 203.237C48.5158 203.127 48.4976 203.011 48.4793 202.896C48.1628 200.704 48.0106 198.476 48.0106 196.206C48.0106 193.935 48.1567 191.853 48.461 189.674C48.7654 187.501 49.2767 185.516 50.0011 183.733C50.7255 181.943 51.736 180.5 53.0327 179.417C54.3232 178.327 55.9485 177.785 57.9087 177.785C59.8688 177.785 61.4454 178.309 62.7116 179.362C63.8743 180.324 64.7996 181.578 65.4996 183.13L48.5341 203.237ZM67.265 202.713C66.9728 204.874 66.4675 206.852 65.7553 208.642C65.0431 210.432 64.0447 211.862 62.7664 212.934C61.4819 214.011 59.8627 214.547 57.9087 214.547C55.9546 214.547 54.3658 214.029 53.0874 212.988C52.0587 212.161 51.2004 211.095 50.5307 209.799L67.2954 189.923C67.5633 191.975 67.6971 194.069 67.6971 196.206C67.6971 198.342 67.5511 200.546 67.265 202.713Z" fill="black"/>
<path d="M94.0799 185.035C92.6189 185.954 91.5232 187.208 90.7988 188.809V184.53H82.6783V221.59H90.7988V201.106C90.7988 199.146 91.1093 197.453 91.7241 196.029C92.3389 194.604 93.2033 193.502 94.3173 192.729C95.4313 191.956 96.7583 191.567 98.3045 191.567C99.4185 191.567 100.429 191.725 101.348 192.035C102.267 192.352 103.187 192.869 104.106 193.594L105.232 186.088C103.515 184.469 101.415 183.659 98.9255 183.659C97.1601 183.659 95.547 184.116 94.086 185.035H94.0799Z" fill="black"/>
<path d="M131.481 187.208C129.234 184.84 126.392 183.653 122.958 183.653C119.866 183.653 117.175 184.451 114.893 186.046C112.61 187.64 110.832 189.893 109.56 192.809C108.294 195.724 107.655 199.121 107.655 203.017C107.655 209.062 109.006 213.81 111.715 217.268C114.424 220.725 118.155 222.454 122.922 222.454C126.641 222.454 129.496 221.176 131.481 218.613V221.584H139.638V169.226L131.481 172.964V187.214V187.208ZM131.481 210.888C130.683 212.148 129.673 213.098 128.455 213.755C127.232 214.407 125.813 214.735 124.194 214.735C122.477 214.735 120.992 214.26 119.732 213.305C118.478 212.349 117.51 211.004 116.828 209.263C116.153 207.522 115.812 205.446 115.812 203.029C115.812 199.261 116.542 196.37 118.003 194.361C119.464 192.352 121.528 191.354 124.188 191.354C125.661 191.354 127.043 191.695 128.34 192.37C129.63 193.046 130.677 193.965 131.475 195.128V210.9L131.481 210.888Z" fill="black"/>
<path d="M170.44 185.54C168.035 184.286 165.369 183.653 162.447 183.653C159.038 183.653 156.068 184.426 153.529 185.973C150.991 187.519 149.018 189.741 147.618 192.626C146.218 195.518 145.512 198.975 145.512 203.017C145.512 207.059 146.188 210.31 147.545 213.226C148.897 216.142 150.845 218.406 153.383 220.025C155.921 221.645 158.941 222.454 162.447 222.454C165.253 222.454 167.749 221.937 169.935 220.896C172.12 219.855 173.977 218.504 175.499 216.836L170.787 211.868C169.6 213.128 168.358 214.042 167.049 214.608C165.747 215.174 164.243 215.46 162.551 215.46C160.858 215.46 159.3 215.064 158.016 214.279C156.731 213.494 155.715 212.398 154.954 210.998C154.193 209.598 153.736 207.954 153.596 206.067H178.074C178.195 205.197 178.268 204.332 178.293 203.474C178.317 202.616 178.329 201.873 178.329 201.246C178.329 197.234 177.617 193.929 176.193 191.33C174.768 188.73 172.851 186.8 170.446 185.546L170.44 185.54ZM153.633 199.505C153.852 196.51 154.777 194.282 156.409 192.833C158.04 191.384 160.018 190.66 162.338 190.66C164.006 190.66 165.418 191.031 166.581 191.768C167.743 192.504 168.644 193.539 169.283 194.866C169.922 196.193 170.282 197.746 170.355 199.505H153.639H153.633Z" fill="black"/>
<path d="M202.003 183.659C199.903 183.659 198.034 184.03 196.403 184.767C194.771 185.504 193.377 186.636 192.215 188.158V184.53H184.094V221.59H192.215V200.412C192.215 197.368 192.848 195.091 194.12 193.594C195.386 192.096 197.304 191.348 199.867 191.348C202.235 191.348 204.006 192.108 205.181 193.63C206.356 195.152 206.94 197.459 206.94 200.558V221.59H215.097V199.072C215.097 194.02 213.983 190.191 211.761 187.579C209.539 184.968 206.289 183.665 202.009 183.665L202.003 183.659Z" fill="black"/>
<path d="M236.445 215.204C235.356 215.204 234.552 214.882 234.035 214.243C233.517 213.603 233.256 212.617 233.256 211.29V191.677H241.887V184.536H233.256V169.232L225.135 173.11V184.53H219.516V191.671H225.135V213.062C225.135 216.13 225.847 218.467 227.272 220.062C228.696 221.657 230.815 222.454 233.615 222.454C235.088 222.454 236.458 222.314 237.712 222.04C238.966 221.76 240.165 221.346 241.303 220.786L242.21 213.463C240.128 214.626 238.211 215.204 236.445 215.204Z" fill="black"/>
<path d="M160.456 19.6834C166.002 20.4504 171.603 21.7653 176.807 23.8533C183.455 26.1847 189.14 30.939 191.965 37.3794C201.218 59.5131 164.736 78.7311 147.941 85.3602C140.831 88.0996 133.197 89.9075 125.582 91.4841C114.156 93.706 102.444 95.3131 90.8047 94.6739C75.8845 93.9434 67.2283 86.6507 81.4606 75.0847C64.9455 86.1759 74.9531 95.8366 90.5307 97.3889C102.48 98.8438 114.539 97.742 126.379 96.0314C134.329 94.8018 142.17 93.1521 149.828 90.5284C167.214 84.2158 190.309 72.2662 198.253 54.5641C204.274 41.6467 196.908 26.5135 185.25 20.0122C183.376 18.886 181.33 17.9911 179.4 17.3093C177.635 16.6823 175.316 15.684 173.484 15.3248C163.756 12.4759 153.328 11.7577 143.248 11.6968C101.287 12.7377 60.179 26.2456 24.58 48.0689C17.8413 52.2205 11.2669 56.6521 5.08818 61.5707C18.3161 53.0727 32.4145 45.9018 46.8416 39.7109C80.0909 25.4604 124.377 14.9596 160.463 19.6773L160.456 19.6834Z" fill="black"/>
<path d="M142.231 44.5261C126.842 42.3529 111.265 44.6174 96.3018 48.2942C75.3247 53.8276 54.1893 62.076 38.5812 77.7511C33.9 82.5297 30.3694 88.2639 28.6466 94.8383C22.6749 118.439 50.476 127.217 68.8112 128.301C81.1138 129.238 93.5016 128.094 105.634 126.182C117.675 124.186 129.582 121.44 141.178 117.678C113.237 122.493 79.5006 127.862 52.2596 118.999C44.6138 116.229 36.8889 111.987 34.9957 103.994C33.7965 98.2655 36.5176 92.2695 39.616 87.4056C40.8761 85.8047 42.2519 84.1002 43.6946 82.6453C60.0941 66.0815 84.2488 57.4313 106.504 51.6909C115.221 49.6456 123.993 47.9472 132.948 47.8133C143.576 47.6915 175 48.2333 158.917 65.3084C174.786 51.6848 153.968 45.8288 142.225 44.5383L142.231 44.5261Z" fill="black"/>
<path d="M229.433 49.8345C208.443 87.1928 125.223 110.812 84.1939 110.818C109.335 114.263 134.993 109.637 159.154 102.576C183.437 95.149 208.2 84.7274 225.805 65.7348C236.403 54.2722 244.475 36.4666 236.549 21.4003C229.177 8.93333 210.178 1.64674 196.433 0.63623C207.415 3.26598 217.684 7.09498 225.945 14.4425C237.036 23.1596 236.019 38.5607 229.433 49.8345Z" fill="black"/>
<path d="M47.2618 143.55C86.8907 149.467 127.214 140.786 164.535 127.686C179.382 122.293 193.986 116.156 207.896 108.681C200.652 111.755 193.274 114.507 185.853 117.124C142.73 131.996 93.9764 143.714 48.3454 136.714C35.1723 134.443 16.8796 130.34 9.33129 118.61C1.77684 105.504 12.9716 90.4129 22.0783 80.8131C32.8043 69.7645 45.8861 61.1265 59.887 54.686C81.1259 44.7636 103.753 37.3248 127.019 34.0254C103.272 35.1211 79.9328 41.4277 58.0061 50.4735C43.1468 56.5792 29.1884 65.0955 17.6893 76.4606C6.25722 87.5944 -6.155 106.051 3.41437 122.159C12.4237 136.464 31.7086 140.993 47.2679 143.544L47.2618 143.55Z" fill="black"/>
<path d="M122.398 55.1238C103.668 58.3744 87.816 67.4263 86.3124 75.7295C85.9045 77.9819 86.5741 80.0577 88.242 81.7439C91.2796 84.8058 97.5801 86.4312 105.512 86.4312C109.244 86.4312 113.34 86.072 117.62 85.3294C136.351 82.0787 152.202 73.0268 153.706 64.7236C154.114 62.4712 153.45 60.3954 151.776 58.7092C148.738 55.6473 142.438 54.022 134.512 54.022C130.781 54.022 126.684 54.3811 122.398 55.1298V55.1238Z" fill="black"/>
</svg>
