<svg width="241" height="146" viewBox="0 0 241 146" fill="none" xmlns="http://www.w3.org/2000/svg">
<path d="M81.6656 74.6497C67.3956 86.2397 76.0656 93.5595 91.0356 94.2896C102.716 94.9296 114.446 93.3196 125.906 91.0896C133.546 89.5096 141.196 87.6995 148.326 84.9495C165.176 78.2995 201.746 59.0296 192.476 36.8396C189.646 30.3796 183.946 25.6195 177.276 23.2795C172.066 21.1795 166.446 19.8596 160.886 19.0996C124.696 14.3596 80.2956 24.8995 46.9556 39.1895C32.4856 45.3895 18.3456 52.5796 5.08557 61.1096C11.2856 56.1796 17.8756 51.7296 24.6356 47.5696C60.3356 25.6896 101.556 12.1496 143.626 11.0996C153.736 11.1596 164.196 11.8795 173.946 14.7395C175.786 15.0995 178.106 16.0995 179.876 16.7295C181.816 17.4195 183.866 18.3095 185.746 19.4395C197.436 25.9595 204.826 41.1296 198.786 54.0896C190.816 71.8396 167.656 83.8197 150.226 90.1597C142.546 92.7897 134.686 94.4397 126.716 95.6697C114.846 97.3897 102.746 98.4895 90.7656 97.0295C75.1456 95.4695 65.1056 85.7797 81.6656 74.6597V74.6497Z" fill="white"/>
<path d="M159.346 64.8293C175.466 47.7093 143.966 47.1692 133.306 47.2892C124.326 47.4292 115.526 49.1291 106.786 51.1791C84.4656 56.9391 60.2456 65.6092 43.8056 82.2192C42.3656 83.6792 40.9756 85.3892 39.7156 86.9892C36.6056 91.8692 33.8756 97.8793 35.0756 103.619C36.9756 111.629 44.7256 115.889 52.3856 118.669C79.7056 127.559 113.536 122.169 141.556 117.349C129.926 121.129 117.986 123.879 105.916 125.879C93.7556 127.799 81.3256 128.949 68.9956 128.009C50.6056 126.919 22.7356 118.119 28.7156 94.4592C30.4456 87.8692 33.9856 82.1193 38.6756 77.3293C54.3256 61.6093 75.5156 53.3392 96.5556 47.7992C111.566 44.1092 127.186 41.8392 142.616 44.0192C154.386 45.3092 175.266 51.1893 159.356 64.8393L159.346 64.8293Z" fill="white"/>
<path d="M84.4156 110.48C125.556 110.48 209.006 86.7901 230.046 49.3301C236.646 38.0201 237.676 23.5801 226.546 14.8401C218.266 7.47009 207.966 2.63 196.956 0C210.736 1.01 229.786 8.32007 237.176 20.8201C245.126 35.9301 237.026 53.78 226.406 65.27C208.756 84.31 183.926 94.77 159.576 102.21C135.346 109.29 109.616 113.93 84.4056 110.47L84.4156 110.48Z" fill="white"/>
<path d="M127.356 33.4893C104.026 36.7993 81.3356 44.2592 60.0456 54.2092C46.0056 60.6592 32.8856 69.3294 22.1356 80.4094C13.0056 90.0294 1.77563 105.169 9.35563 118.309C16.9256 130.069 35.2656 134.179 48.4756 136.459C94.2256 143.479 143.126 131.729 186.366 116.819C193.806 114.189 201.196 111.439 208.466 108.349C194.516 115.849 179.876 121.999 164.986 127.409C127.566 140.539 87.1356 149.249 47.3956 143.309C31.7956 140.749 12.4556 136.209 3.42564 121.869C-6.17436 105.719 6.27563 87.2093 17.7356 76.0493C29.2656 64.6493 43.2656 56.1093 58.1656 49.9893C80.1556 40.9193 103.556 34.5993 127.366 33.4993L127.356 33.4893Z" fill="white"/>
<path d="M105.786 86.03C97.8356 86.03 91.5156 84.4001 88.4656 81.3301C86.7956 79.6401 86.1256 77.56 86.5356 75.3C88.0456 66.98 103.936 57.9001 122.716 54.6401C136.136 52.3101 147.696 53.72 152.176 58.23C153.846 59.92 154.516 62 154.106 64.26C152.596 72.58 136.706 81.6602 117.926 84.9202C113.636 85.6702 109.526 86.03 105.786 86.03ZM134.886 55.53C131.246 55.53 127.236 55.8801 123.066 56.6101C105.656 59.6301 89.8356 68.3602 88.5056 75.6602C88.2156 77.2702 88.6756 78.7002 89.8956 79.9202C93.8656 83.9202 104.996 85.1399 117.596 82.9499C135.006 79.9299 150.826 71.2001 152.156 63.9001C152.446 62.2901 151.986 60.8601 150.766 59.6401C148.106 56.9601 142.246 55.53 134.886 55.53Z" fill="white"/>
</svg>
